<svg width="191.3375px" height="77.6px" xmlns="http://www.w3.org/2000/svg" viewBox="154.33125 36.2 191.3375 77.6" style="background: none;" preserveAspectRatio="xMidYMid"><defs><linearGradient id="editing-glowing-gradient" x1="0.8146601955249185" x2="0.18533980447508147" y1="0.8885729807284856" y2="0.11142701927151444"><stop offset="0" stop-color="#67ff43"></stop><stop offset="1" stop-color="#90ffff"></stop></linearGradient><filter id="editing-glowing" x="-100%" y="-100%" width="300%" height="300%"><feGaussianBlur in="SourceGraphic" result="blur" stdDeviation="10"></feGaussianBlur><feMerge><feMergeNode in="blur"></feMergeNode><feMergeNode in="SourceGraphic"></feMergeNode></feMerge></filter></defs><g filter="url(#editing-glowing)"><g transform="translate(186.77001547813416, 88.31999969482422)"><path d="M15.05 0L15.05-11.45L5.95-11.45L5.95 0L2.91 0L2.91-24.12L5.95-24.12L5.95-13.93L15.05-13.93L15.05-24.12L18.10-24.12L18.10 0L15.05 0ZM37.73-4.03L37.73-4.03Q37.73-2.94 38.08-2.43L38.08-2.43L38.08-2.43Q38.43-1.93 39.24-1.68L39.24-1.68L38.50 0.42L38.50 0.42Q35.81 0.07 35.14-2.21L35.14-2.21L35.14-2.21Q34.16-0.95 32.67-0.28L32.67-0.28L32.67-0.28Q31.19 0.39 29.37 0.39L29.37 0.39L29.37 0.39Q26.60 0.39 25.01-1.16L25.01-1.16L25.01-1.16Q23.42-2.70 23.42-5.29L23.42-5.29L23.42-5.29Q23.42-8.12 25.64-9.66L25.64-9.66L25.64-9.66Q27.86-11.20 32.03-11.20L32.03-11.20L34.76-11.20L34.76-12.71L34.76-12.71Q34.76-14.67 33.64-15.52L33.64-15.52L33.64-15.52Q32.52-16.38 30.38-16.38L30.38-16.38L30.38-16.38Q28.28-16.38 25.59-15.44L25.59-15.44L24.78-17.68L24.78-17.68Q28.04-18.83 30.84-18.83L30.84-18.83L30.84-18.83Q34.20-18.83 35.96-17.26L35.96-17.26L35.96-17.26Q37.73-15.68 37.73-12.88L37.73-12.88L37.73-4.03ZM30.10-1.82L30.10-1.82Q31.47-1.82 32.71-2.52L32.71-2.52L32.71-2.52Q33.95-3.22 34.76-4.45L34.76-4.45L34.76-9.17L32.10-9.17L32.10-9.17Q29.16-9.17 27.86-8.19L27.86-8.19L27.86-8.19Q26.57-7.21 26.57-5.32L26.57-5.32L26.57-5.32Q26.57-1.82 30.10-1.82L30.10-1.82ZM53.87-2.14L53.87-2.14Q56.28-2.14 58.66-3.75L58.66-3.75L60.06-1.82L60.06-1.82Q58.91-0.81 57.19-0.21L57.19-0.21L57.19-0.21Q55.48 0.39 53.87 0.39L53.87 0.39L53.87 0.39Q49.77 0.39 47.48-2.19L47.48-2.19L47.48-2.19Q45.19-4.76 45.19-9.14L45.19-9.14L45.19-9.14Q45.19-11.90 46.22-14.11L46.22-14.11L46.22-14.11Q47.25-16.31 49.21-17.57L49.21-17.57L49.21-17.57Q51.17-18.83 53.87-18.83L53.87-18.83L53.87-18.83Q57.44-18.83 60.03-16.66L60.03-16.66L58.59-14.74L58.59-14.74Q56.18-16.35 53.83-16.35L53.83-16.35L53.83-16.35Q51.35-16.35 49.86-14.51L49.86-14.51L49.86-14.51Q48.37-12.67 48.37-9.14L48.37-9.14L48.37-9.14Q48.37-5.60 49.86-3.87L49.86-3.87L49.86-3.87Q51.35-2.14 53.87-2.14L53.87-2.14ZM69.65-26.22L69.65 0L66.71 0L66.71-25.87L69.65-26.22ZM81.94-18.45L73.68-10.12L82.92 0L79.03 0L69.97-10.08L78.16-18.45L81.94-18.45ZM89.85-8.19L89.85-8.19Q89.95-5.15 91.44-3.61L91.44-3.61L91.44-3.61Q92.93-2.07 95.20-2.07L95.20-2.07L95.20-2.07Q96.57-2.07 97.70-2.47L97.70-2.47L97.70-2.47Q98.84-2.87 100.14-3.71L100.14-3.71L101.50-1.75L101.50-1.75Q100.21-0.74 98.54-0.18L98.54-0.18L98.54-0.18Q96.88 0.39 95.20 0.39L95.20 0.39L95.20 0.39Q91.21 0.39 88.99-2.22L88.99-2.22L88.99-2.22Q86.77-4.83 86.77-9.21L86.77-9.21L86.77-9.21Q86.77-11.97 87.75-14.16L87.75-14.16L87.75-14.16Q88.73-16.35 90.55-17.59L90.55-17.59L90.55-17.59Q92.37-18.83 94.78-18.83L94.78-18.83L94.78-18.83Q98.28-18.83 100.29-16.40L100.29-16.40L100.29-16.40Q102.31-13.97 102.31-9.77L102.31-9.77L102.31-9.77Q102.31-8.96 102.24-8.19L102.24-8.19L89.85-8.19ZM94.82-16.42L94.82-16.42Q92.68-16.42 91.35-14.89L91.35-14.89L91.35-14.89Q90.02-13.37 89.85-10.43L89.85-10.43L99.44-10.43L99.44-10.43Q99.40-13.34 98.18-14.88L98.18-14.88L98.18-14.88Q96.95-16.42 94.82-16.42L94.82-16.42ZM120.96-18.83L120.96-18.83Q122.08-18.83 123.55-18.45L123.55-18.45L123.13-12.18L120.75-12.18L120.75-16.14L120.58-16.14L120.58-16.14Q116.31-16.14 114.52-10.05L114.52-10.05L114.52-2.28L118.27-2.28L118.27 0L108.68 0L108.68-2.28L111.58-2.28L111.58-16.17L108.68-16.17L108.68-18.45L113.79-18.45L114.35-14.07L114.35-14.07Q115.47-16.45 117.02-17.64L117.02-17.64L117.02-17.64Q118.58-18.83 120.96-18.83L120.96-18.83Z" fill="url(#editing-glowing-gradient)"></path></g></g><style>text {
  font-size: 64px;
  font-family: Arial Black;
  dominant-baseline: central;
  text-anchor: middle;
}</style></svg>