<svg width="186.4625px" height="75.19999999999999px" xmlns="http://www.w3.org/2000/svg" viewBox="156.76875 37.400000000000006 186.4625 75.19999999999999" style="background: rgba(0, 0, 0, 0);" preserveAspectRatio="xMidYMid"><defs><filter id="editing-neon" x="-100%" y="-100%" width="300%" height="300%"><feFlood flood-color="#00ff2f" result="flood"></feFlood><feComposite operator="in" in="flood" in2="SourceAlpha" result="color"></feComposite><feFlood flood-color="#00ff2f" result="flood2"></feFlood><feComposite operator="in" in="flood2" in2="SourceAlpha" result="color2"></feComposite><feMorphology operator="dilate" radius="2" in="color" result="dilate"></feMorphology><feGaussianBlur stdDeviation="6" in="color" result="blur1"></feGaussianBlur><feGaussianBlur stdDeviation="2.5" in="color" result="blur2"></feGaussianBlur><feGaussianBlur stdDeviation="1" in="SourceAlpha" result="blur3"></feGaussianBlur><feGaussianBlur stdDeviation="6" in="dilate" result="blur4"></feGaussianBlur><feConvolveMatrix in="color2" result="conv" order="3,3" divisor="1" kernelMatrix="1 1 1  1 1 1  1 1 1"></feConvolveMatrix><feMerge><feMergeNode in="blur1"></feMergeNode><feMergeNode in="blur2"></feMergeNode><feMergeNode in="blur4"></feMergeNode><feMergeNode in="blur3"></feMergeNode><feMergeNode in="blur3"></feMergeNode><feMergeNode in="blur3"></feMergeNode><feMergeNode in="blur3"></feMergeNode><feMergeNode in="conv"></feMergeNode><feMergeNode in="SourceGraphic"></feMergeNode></feMerge></filter></defs><g filter="url(#editing-neon)"><g transform="translate(188.58001685142517, 87.9399995803833)"><path d="M14.62 0L14.62-11.12L5.78-11.12L5.78 0L2.82 0L2.82-23.43L5.78-23.43L5.78-13.53L14.62-13.53L14.62-23.43L17.58-23.43L17.58 0L14.62 0ZM36.65-3.91L36.65-3.91Q36.65-2.86 36.99-2.36L36.99-2.36L36.99-2.36Q37.33-1.87 38.11-1.63L38.11-1.63L37.40 0.41L37.40 0.41Q34.78 0.07 34.14-2.14L34.14-2.14L34.14-2.14Q33.18-0.92 31.74-0.27L31.74-0.27L31.74-0.27Q30.29 0.37 28.53 0.37L28.53 0.37L28.53 0.37Q25.84 0.37 24.29-1.12L24.29-1.12L24.29-1.12Q22.75-2.62 22.75-5.13L22.75-5.13L22.75-5.13Q22.75-7.89 24.91-9.38L24.91-9.38L24.91-9.38Q27.06-10.88 31.11-10.88L31.11-10.88L33.76-10.88L33.76-12.34L33.76-12.34Q33.76-14.25 32.67-15.08L32.67-15.08L32.67-15.08Q31.59-15.91 29.51-15.91L29.51-15.91L29.51-15.91Q27.47-15.91 24.85-14.99L24.85-14.99L24.07-17.17L24.07-17.17Q27.23-18.29 29.95-18.29L29.95-18.29L29.95-18.29Q33.22-18.29 34.94-16.76L34.94-16.76L34.94-16.76Q36.65-15.23 36.65-12.51L36.65-12.51L36.65-3.91ZM29.24-1.77L29.24-1.77Q30.57-1.77 31.77-2.45L31.77-2.45L31.77-2.45Q32.98-3.13 33.76-4.32L33.76-4.32L33.76-8.91L31.18-8.91L31.18-8.91Q28.32-8.91 27.06-7.96L27.06-7.96L27.06-7.96Q25.81-7.00 25.81-5.17L25.81-5.17L25.81-5.17Q25.81-1.77 29.24-1.77L29.24-1.77ZM52.33-2.07L52.33-2.07Q54.67-2.07 56.98-3.64L56.98-3.64L58.34-1.77L58.34-1.77Q57.22-0.78 55.56-0.20L55.56-0.20L55.56-0.20Q53.89 0.37 52.33 0.37L52.33 0.37L52.33 0.37Q48.35 0.37 46.12-2.13L46.12-2.13L46.12-2.13Q43.89-4.62 43.89-8.87L43.89-8.87L43.89-8.87Q43.89-11.56 44.90-13.70L44.90-13.70L44.90-13.70Q45.90-15.84 47.80-17.07L47.80-17.07L47.80-17.07Q49.71-18.29 52.33-18.29L52.33-18.29L52.33-18.29Q55.79-18.29 58.31-16.18L58.31-16.18L56.92-14.31L56.92-14.31Q54.57-15.88 52.29-15.88L52.29-15.88L52.29-15.88Q49.88-15.88 48.43-14.09L48.43-14.09L48.43-14.09Q46.99-12.31 46.99-8.87L46.99-8.87L46.99-8.87Q46.99-5.44 48.43-3.76L48.43-3.76L48.43-3.76Q49.88-2.07 52.33-2.07L52.33-2.07ZM67.66-25.47L67.66 0L64.80 0L64.80-25.13L67.66-25.47ZM79.59-17.92L71.57-9.83L80.55 0L76.77 0L67.97-9.79L75.92-17.92L79.59-17.92ZM87.28-7.96L87.28-7.96Q87.38-5.00 88.83-3.50L88.83-3.50L88.83-3.50Q90.27-2.01 92.48-2.01L92.48-2.01L92.48-2.01Q93.81-2.01 94.91-2.40L94.91-2.40L94.91-2.40Q96.02-2.79 97.27-3.60L97.27-3.60L98.60-1.70L98.60-1.70Q97.34-0.71 95.73-0.17L95.73-0.17L95.73-0.17Q94.11 0.37 92.48 0.37L92.48 0.37L92.48 0.37Q88.60 0.37 86.45-2.16L86.45-2.16L86.45-2.16Q84.29-4.69 84.29-8.94L84.29-8.94L84.29-8.94Q84.29-11.63 85.24-13.75L85.24-13.75L85.24-13.75Q86.19-15.88 87.96-17.09L87.96-17.09L87.96-17.09Q89.73-18.29 92.07-18.29L92.07-18.29L92.07-18.29Q95.47-18.29 97.43-15.93L97.43-15.93L97.43-15.93Q99.38-13.57 99.38-9.49L99.38-9.49L99.38-9.49Q99.38-8.70 99.31-7.96L99.31-7.96L87.28-7.96ZM92.11-15.95L92.11-15.95Q90.03-15.95 88.74-14.47L88.74-14.47L88.74-14.47Q87.45-12.99 87.28-10.13L87.28-10.13L96.59-10.13L96.59-10.13Q96.56-12.95 95.37-14.45L95.37-14.45L95.37-14.45Q94.18-15.95 92.11-15.95L92.11-15.95ZM117.50-18.29L117.50-18.29Q118.59-18.29 120.02-17.92L120.02-17.92L119.61-11.83L117.30-11.83L117.30-15.67L117.13-15.67L117.13-15.67Q112.98-15.67 111.25-9.76L111.25-9.76L111.25-2.21L114.89-2.21L114.89 0L105.57 0L105.57-2.21L108.39-2.21L108.39-15.71L105.57-15.71L105.57-17.92L110.53-17.92L111.08-13.67L111.08-13.67Q112.17-15.98 113.68-17.14L113.68-17.14L113.68-17.14Q115.19-18.29 117.50-18.29L117.50-18.29Z" fill="none" stroke="#e9ffd4" stroke-width="1"></path></g></g><style>text {
  font-size: 64px;
  font-family: Arial Black;
  dominant-baseline: central;
  text-anchor: middle;
}</style></svg>